<?xml version="1.0" encoding="utf-8"?>
<!-- Generator: Adobe Illustrator 22.0.1, SVG Export Plug-In . SVG Version: 6.00 Build 0)  -->
<svg version="1.1" id="Calque_1" xmlns="http://www.w3.org/2000/svg" xmlns:xlink="http://www.w3.org/1999/xlink" x="0px" y="0px"
	 viewBox="0 0 506 477" style="enable-background:new 0 0 506 477;" xml:space="preserve">
<style type="text/css">
	.st0{fill:none;stroke:#162843;stroke-linecap:round;stroke-linejoin:round;}
	.st1{fill:none;stroke:#162843;stroke-linecap:round;}
	.st2{fill:#122844;}
	.st3{font-family:'SourceSansPro-Regular';}
	.st4{font-size:17px;}
	.st5{fill:#59D2EF;fill-opacity:0.1;stroke:#59D2EF;}
	.st6{fill:#FFFFFF;stroke:#192542;stroke-linecap:round;stroke-linejoin:round;}
	.st7{fill:none;stroke:#192542;stroke-linecap:round;stroke-linejoin:round;}
	.st8{fill:none;stroke:#192542;}
	.st9{fill:#FFFFFF;stroke:#162843;stroke-linecap:round;stroke-linejoin:round;}
	.st10{fill:#162843;}
	.st11{fill:#122844;stroke:#FFFFFF;stroke-width:6;}
	.st12{fill:none;stroke:#59D2EF;stroke-width:2;}
	.st13{fill:#FFFFFF;}
	.st14{fill:none;stroke:#162843;stroke-linejoin:round;}
	.st15{fill:none;stroke:#162843;stroke-width:2;stroke-linecap:round;}
</style>
<title>Shema-Fonctionnement@3x</title>
<desc>Created with Sketch.</desc>
<g id="Symbole">
	<g id="Shema-Fonctionnement">
		<g id="infinite_120px-bkg-light" transform="translate(192.000000, 64.000000)">
			<path id="Shape" class="st0" d="M60,60c-3.3,7.9-7.4,15.5-16,15.5c-7,0-13.1-4.8-14.9-11.5c-1.8-6.8,1.2-13.9,7.2-17.4
				C42.4,43.1,50,44.1,55,49"/>
			<path id="Shape_1_" class="st0" d="M60,60c3.3-7.9,7.4-15.5,16-15.5c8.6,0,15.5,6.9,15.5,15.5S84.6,75.5,76,75.5
				c-4.1,0-8.1-1.6-11.1-4.4"/>
			<polyline id="Shape_2_" class="st0" points="52.3,42.6 55,49.1 48.5,51.8 			"/>
		</g>
		<g id="person_120px-bkg-light" transform="translate(224.000000, 32.000000)">
			<path id="Shape_3_" class="st1" d="M35.5,16.5h-19c-0.6,0-1,0.4-1,1V30c0,7.5,6,13.5,13.5,13.5s13.5-6,13.5-13.5V16.5"/>
			<path id="Shape_4_" class="st1" d="M15.5,19.5L15.5,19.5c-1.1,0-2-0.9-2-2v-8c0-2.8,2.2-5,5-5h3v-1c0-1.7,1.3-3,3-3h15
				c2.8,0,5,2.2,5,5v12c0,1.1-0.9,2-2,2"/>
			<path id="Shape_5_" class="st1" d="M15.5,50L15.5,50c0,7.5,6,13.5,13.5,13.5s13.5-6,13.5-13.5"/>
			<path id="Shape_6_" class="st1" d="M0.5,63.5V59c0-5,4-9,9-9h6"/>
			<path id="Shape_7_" class="st1" d="M42.5,50h6c5,0,9,4,9,9v4.5"/>
			<path id="Shape_8_" class="st1" d="M42.5,50c-2.8,0-5-2.2-5-5v-4.6"/>
			<path id="Shape_9_" class="st1" d="M20.5,40.4V45c0,2.8-2.2,5-5,5"/>
		</g>
		<g id="person_120px-bkg-light_1_" transform="translate(194.000000, 31.000000)">
			<path id="Shape_10_" class="st1" d="M28.2,13.1H13.1c-0.4,0-0.8,0.4-0.8,0.8v10c0,5.9,4.8,10.8,10.7,10.8s10.7-4.8,10.7-10.8
				V13.1"/>
			<path id="Shape_11_" class="st1" d="M12.3,15.5L12.3,15.5c-0.9,0-1.6-0.7-1.6-1.6V7.6c0-2.2,1.8-4,4-4h2.4V2.8
				c0-1.3,1.1-2.4,2.4-2.4h11.9c2.2,0,4,1.8,4,4v9.6c0,0.9-0.7,1.6-1.6,1.6"/>
			<path id="Shape_12_" class="st1" d="M12.3,39.8L12.3,39.8c0,5.9,4.8,10.8,10.7,10.8s10.7-4.8,10.7-10.8"/>
			<path id="Shape_13_" class="st1" d="M0.4,50.6V47c0-4,3.2-7.2,7.1-7.2h4.8"/>
			<path id="Shape_14_" class="st1" d="M33.7,39.8h4.8c3.9,0,7.1,3.2,7.1,7.2v3.6"/>
			<path id="Shape_15_" class="st1" d="M33.7,39.8c-2.2,0-4-1.8-4-4v-3.6"/>
			<path id="Shape_16_" class="st1" d="M16.3,32.2v3.6c0,2.2-1.8,4-4,4"/>
		</g>
		<g id="person_120px-bkg-light_2_" transform="translate(266.000000, 31.000000)">
			<path id="Shape_17_" class="st1" d="M28.2,13.1H13.1c-0.4,0-0.8,0.4-0.8,0.8v10c0,5.9,4.8,10.8,10.7,10.8s10.7-4.8,10.7-10.8
				V13.1"/>
			<path id="Shape_18_" class="st1" d="M12.3,15.5L12.3,15.5c-0.9,0-1.6-0.7-1.6-1.6V7.6c0-2.2,1.8-4,4-4h2.4V2.8
				c0-1.3,1.1-2.4,2.4-2.4h11.9c2.2,0,4,1.8,4,4v9.6c0,0.9-0.7,1.6-1.6,1.6"/>
			<path id="Shape_19_" class="st1" d="M12.3,39.8L12.3,39.8c0,5.9,4.8,10.8,10.7,10.8s10.7-4.8,10.7-10.8"/>
			<path id="Shape_20_" class="st1" d="M0.4,50.6V47c0-4,3.2-7.2,7.1-7.2h4.8"/>
			<path id="Shape_21_" class="st1" d="M33.7,39.8h4.8c3.9,0,7.1,3.2,7.1,7.2v3.6"/>
			<path id="Shape_22_" class="st1" d="M33.7,39.8c-2.2,0-4-1.8-4-4v-3.6"/>
			<path id="Shape_23_" class="st1" d="M16.3,32.2v3.6c0,2.2-1.8,4-4,4"/>
		</g>
		<text transform="matrix(1 0 0 1 159.9688 17)" class="st2 st3 st4">Unlimited data volumetry</text>
		<text transform="matrix(1 0 0 1 93 172)" class="st2 st3 st4">Dedicated IPv4 (/32)</text>
		<g id="Group" transform="translate(24.000000, 330.000000)">
			<rect id="Rectangle-2" class="st5" width="217" height="116"/>
			<rect id="Rectangle-2_1_" x="217" class="st5" width="121" height="116"/>
			<rect id="Rectangle-2-Copy" x="338" class="st5" width="121" height="116"/>
			<rect id="Rectangle-path" x="25.5" y="8.5" class="st6" width="49" height="63"/>
			<path id="Rectangle-path_1_" class="st7" d="M33.5,14.5h33c1.7,0,3,1.3,3,3v10c0,1.7-1.3,3-3,3h-33c-1.7,0-3-1.3-3-3v-10
				C30.5,15.8,31.8,14.5,33.5,14.5z"/>
			<circle id="Oval" class="st8" cx="64" cy="21" r="1.5"/>
			<path id="Rectangle-path_2_" class="st7" d="M33.5,30.5h33c1.7,0,3,1.3,3,3v10c0,1.7-1.3,3-3,3h-33c-1.7,0-3-1.3-3-3v-10
				C30.5,31.8,31.8,30.5,33.5,30.5z"/>
			<circle id="Oval_1_" class="st8" cx="64" cy="37" r="1.5"/>
			<path id="Rectangle-path_3_" class="st7" d="M33.5,46.5h33c1.7,0,3,1.3,3,3v10c0,1.7-1.3,3-3,3h-33c-1.7,0-3-1.3-3-3v-10
				C30.5,47.8,31.8,46.5,33.5,46.5z"/>
			<circle id="Oval_2_" class="st8" cx="64" cy="53" r="1.5"/>
			<path id="Shape_24_" class="st9" d="M183.5,35.7c-0.4-8.1-6.1-15-14-16.7c-7.9-1.8-16,1.9-19.9,9.1c-2.8-1-5.8-0.6-8.2,1.1
				c-2.4,1.7-3.8,4.4-3.9,7.4c0,0.4,0,0.8,0.1,1.2c-5,3.3-7.2,9.4-5.5,15.1s7,9.6,12.9,9.6h36c6.9,0,12.7-5.3,13.4-12.3
				C195,43.3,190.3,37,183.5,35.7L183.5,35.7z"/>
			<text transform="matrix(1 0 0 1 153 50)" class="st2 st3 st4">VM</text>
			<path id="Shape_25_" class="st9" d="M297.5,35.7c-0.4-8.1-6.1-15-14-16.7c-7.9-1.8-16,1.9-19.9,9.1c-2.8-1-5.8-0.6-8.2,1.1
				c-2.4,1.7-3.8,4.4-3.9,7.4c0,0.4,0,0.8,0.1,1.2c-5,3.3-7.2,9.4-5.5,15.1s7,9.6,12.9,9.6h36c6.9,0,12.7-5.3,13.4-12.3
				C309,43.3,304.3,37,297.5,35.7L297.5,35.7z"/>
			<path id="Shape_26_" class="st0" d="M260.5,44.5c-0.6,0-1-0.4-1-1v-9c0-0.6,0.4-1,1-1h29c0.6,0,1,0.4,1,1v9c0,0.6-0.4,1-1,1"/>
			<path id="Shape_27_" class="st10" d="M287,38c0,0.6-0.4,1-1,1s-1-0.4-1-1s0.4-1,1-1S287,37.4,287,38"/>
			<path id="Rectangle-path_4_" class="st0" d="M260.5,44.5h29c0.6,0,1,0.4,1,1v9c0,0.6-0.4,1-1,1h-29c-0.6,0-1-0.4-1-1v-9
				C259.5,44.9,259.9,44.5,260.5,44.5z"/>
			<path id="Shape_28_" class="st10" d="M287,49c0,0.6-0.4,1-1,1s-1-0.4-1-1s0.4-1,1-1S287,48.4,287,49"/>
			<text transform="matrix(1 0 0 1 11 93)" class="st2 st3 st4">Dedicated </text>
			<text transform="matrix(1 0 0 1 24.4215 110)" class="st2 st3 st4">Server</text>
			<text transform="matrix(1 0 0 1 139 93)" class="st2 st3 st4">Public </text>
			<text transform="matrix(1 0 0 1 140.4875 110)" class="st2 st3 st4">Cloud</text>
			<text transform="matrix(1 0 0 1 372.5 93)" class="st2 st3 st4">Private </text>
			<text transform="matrix(1 0 0 1 376.7925 110)" class="st2 st3 st4">Cloud</text>
			<text transform="matrix(1 0 0 1 262 93)" class="st2 st3 st4">VPS</text>
			<text transform="matrix(1 0 0 1 73 142)" class="st2 st3 st4">Region A</text>
			<text transform="matrix(1 0 0 1 243 142)" class="st2 st3 st4">Region B</text>
			<text transform="matrix(1 0 0 1 371 142)" class="st2 st3 st4">Region C</text>
		</g>
		<g id="Oval-2">
			<g>
				<circle id="path-1" class="st11" cx="252" cy="214" r="30"/>
			</g>
			<g>
				<circle id="path-1_1_" class="st12" cx="252" cy="214" r="30"/>
			</g>
		</g>
		<text transform="matrix(1 0 0 1 242.286 220)" class="st13 st3 st4">LB</text>
		<path id="Path-3" class="st12" d="M252,151v28"/>
		<path id="Path-3-decoration-1" class="st12" d="M249,168.2l3,10.8l3-10.8"/>
		<path id="Path-3-Copy" class="st12" d="M252,244v61.8"/>
		<path id="Path-3-Copy-decoration-1" class="st12" d="M249,295l3,10.8l3-10.8"/>
		<path id="Path-3-Copy-2" class="st12" d="M138,278v28"/>
		<path id="Path-3-Copy-2-decoration-1" class="st12" d="M135,295.2l3,10.8l3-10.8"/>
		<path id="Path-3-Copy-3" class="st12" d="M424,278v28"/>
		<path id="Path-3-Copy-3-decoration-1" class="st12" d="M421,295.2l3,10.8l3-10.8"/>
		<polyline id="Path-4" class="st12" points="137,278 244,278 244,243 		"/>
		<polyline id="Path-4_1_" class="st12" points="425,278 260,278 260,243 		"/>
		<g id="cloudPadlock_120px-bkg-light" transform="translate(390.000000, 348.000000)">
			<path id="Shape_29_" class="st9" d="M52.5,17.7c-0.4-8.1-6.1-15-14-16.7s-16,1.9-19.9,9.1c-2.8-1-5.8-0.6-8.2,1.1
				s-3.8,4.4-3.9,7.4c0,0.4,0,0.8,0.1,1.2c-5,3.3-7.2,9.4-5.5,15.1s7,9.6,12.9,9.6h36c6.9,0,12.7-5.3,13.4-12.3S59.3,19,52.5,17.7
				L52.5,17.7z"/>
			<path id="Rectangle-path_5_" class="st0" d="M20.5,19.5h23c0.6,0,1,0.4,1,1v17c0,0.6-0.4,1-1,1h-23c-0.6,0-1-0.4-1-1v-17
				C19.5,19.9,19.9,19.5,20.5,19.5z"/>
			<path id="Shape_30_" class="st14" d="M24.5,19.7V15c0-4.1,3.4-7.5,7.5-7.5s7.5,3.4,7.5,7.5v4.7"/>
			<path id="Shape_31_" class="st10" d="M34,28c0,1.1-0.9,2-2,2c-1.1,0-2-0.9-2-2s0.9-2,2-2C33.1,26,34,26.9,34,28"/>
			<path id="Shape_32_" class="st15" d="M32,28v4"/>
		</g>
	</g>
</g>
</svg>
