<?xml version="1.0" encoding="UTF-8"?>
<svg width="120px" height="120px" viewBox="0 0 120 120" version="1.1" xmlns="http://www.w3.org/2000/svg" xmlns:xlink="http://www.w3.org/1999/xlink">
    <!-- Generator: Sketch 46.2 (44496) - http://www.bohemiancoding.com/sketch -->
    <title>support_120px-bkg-light@3x</title>
    <desc>Created with Sketch.</desc>
    <defs></defs>
    <g id="Symbole" stroke="none" stroke-width="1" fill="none" fill-rule="evenodd">
        <g id="support_120px-bkg-light">
            <g id="Shape">
                <path d="M60,3 C91.4802307,3 117,28.5197693 117,60 C117,91.4802307 91.4802307,117 60,117 C28.5197693,117 3,91.4802307 3,60 C3.03307047,28.5334777 28.5334777,3.03307047 60,3 M60,0 C26.862915,-2.91723967e-15 4.05812251e-15,26.862915 0,60 C-4.05812251e-15,93.137085 26.862915,120 60,120 C93.137085,120 120,93.137085 120,60 C120,44.0870106 113.67859,28.8257758 102.426407,17.5735931 C91.1742242,6.32141042 75.9129894,6.7475493e-15 60,5.77315973e-15" fill="#162843" fill-rule="nonzero"></path>
                <path d="M72,47.1 C72,54.59 67.09,60 60.5,60 C53.91,60 49,54.59 49,47.1 C49,39.61 53.9,33 60.5,33 C67.1,33 72,39.62 72,47.1 Z" stroke="#162843" stroke-linecap="round" stroke-linejoin="round"></path>
                <path d="M75,50 L75,43.6183389 C75,35.5448533 68.5081289,29 60.5,29 C52.4918711,29 46,35.5448533 46,43.6183389 L46,50" stroke="#162843" stroke-linecap="round" stroke-linejoin="round"></path>
                <path d="M75,50 L61,55" stroke="#162843" stroke-linecap="round" stroke-linejoin="round"></path>
                <path d="M78,92 L78,81.5 C78,71.88 70.84,64 62.09,64 L58.91,64 C50.16,64 43,71.88 43,81.5 L43,92 L78,92 Z" stroke="#162843" stroke-linecap="round" stroke-linejoin="round"></path>
                <polygon stroke="#162843" stroke-linecap="round" stroke-linejoin="round" points="60.44 64 56 78 60.5 85 65 78"></polygon>
            </g>
        </g>
    </g>
</svg>