<?xml version="1.0" encoding="UTF-8"?>
<svg width="120px" height="120px" viewBox="0 0 120 120" version="1.1" xmlns="http://www.w3.org/2000/svg" xmlns:xlink="http://www.w3.org/1999/xlink">
    <!-- Generator: Sketch 46.2 (44496) - http://www.bohemiancoding.com/sketch -->
    <title>antiDdosProtection_120px-bkg-light@3x</title>
    <desc>Created with Sketch.</desc>
    <defs></defs>
    <g id="Symbole" stroke="none" stroke-width="1" fill="none" fill-rule="evenodd">
        <g id="antiDdosProtection_120px-bkg-light">
            <g id="Shape">
                <path d="M60,3 C91.4802307,3 117,28.5197693 117,60 C117,91.4802307 91.4802307,117 60,117 C28.5197693,117 3,91.4802307 3,60 C3.03307047,28.5334777 28.5334777,3.03307047 60,3 M60,-7.10542736e-15 C26.862915,-1.0022667e-14 4.05812251e-15,26.862915 0,60 C-4.05812251e-15,93.137085 26.862915,120 60,120 C93.137085,120 120,93.137085 120,60 C120,44.0870106 113.67859,28.8257758 102.426407,17.5735931 C91.1742242,6.32141042 75.9129894,-3.57878053e-16 60,-1.33226763e-15" fill="#162843" fill-rule="nonzero"></path>
                <path d="M60.14,28.5 C61.1358112,30.5990448 62.4589914,32.5264322 64.06,34.21 C66.2941849,36.5645502 68.9996896,38.4216032 72,39.66 C75.2315324,40.9620506 78.6860805,41.6210303 82.17,41.6 C82.6356265,42.5058671 83.0496216,43.437356 83.41,44.39 C84.62,47.58 88.87,60.39 88.87,64.79 C88.87,69.19 87.87,73.23 85.05,76.21 C82.57,78.89 60,91.5 60,91.5 C60,91.5 37.43,78.89 34.95,76.22 C32.18,73.22 31.13,69.22 31.13,64.88 C31.13,60.54 35.38,47.62 36.59,44.43 C36.9497991,43.4706122 37.3637992,42.5324347 37.83,41.62 C41.3178711,41.6217213 44.772515,40.9423419 48,39.62 C51.0217901,38.3889907 53.7483647,36.5315118 56,34.17 C57.6018842,32.4833995 58.9251042,30.5525785 59.92,28.45 L60.14,28.5 Z" stroke="#162843" stroke-linecap="round" stroke-linejoin="round"></path>
                <path d="M52.74,87.38 C42.96,81.55 39.92,68.38 45.74,58.33 C47.8941991,54.501644 51.4974804,51.7004436 55.7388404,50.5568752 C59.9802004,49.4133067 64.5032608,50.023458 68.29,52.25 C74.5766323,56.0872503 76.6352281,64.250494 72.92,70.61 C71.5412382,73.0677438 69.2299351,74.8659194 66.5086221,75.5980015 C63.7873092,76.3300836 60.8857791,75.9342539 58.46,74.5 C54.4269155,72.053946 53.0931616,66.8300768 55.46,62.75 C56.3422092,61.1807789 57.8187868,60.032591 59.5569868,59.56418 C61.2951868,59.095769 63.1487583,59.3465465 64.7,60.26 C67.2751019,61.8313032 68.1196934,65.1741076 66.6,67.78 C66.0343758,68.7822836 65.08976,69.5152732 63.9784068,69.8142667 C62.8670535,70.1132602 61.6821706,69.9531815 60.69,69.37 C59.0395589,68.3677308 58.4967733,66.2277317 59.47,64.56 C59.8338887,63.921014 60.4393436,63.4551081 61.1502234,63.2670446 C61.8611033,63.0789812 62.6177407,63.1845452 63.25,63.56 C64.3049012,64.2032925 64.6515597,65.5721492 64.03,66.64 C63.7975558,67.0495348 63.4106906,67.3488409 62.9559073,67.4709934 C62.501124,67.5931459 62.016357,67.527956 61.61,67.29 C61.2768718,67.0925396 61.0365712,66.7700287 60.9426485,66.3943379 C60.8487258,66.0186471 60.9089859,65.620996 61.11,65.29 C61.2568162,65.0255523 61.50435,64.8317293 61.7962913,64.7526226 C62.0882325,64.6735159 62.3997579,64.715852 62.66,64.87 C62.8761573,64.9934116 63.0338231,65.1983217 63.097723,65.4388861 C63.161623,65.6794505 63.1264236,65.9355903 63,66.15" stroke="#162843" stroke-linecap="round" stroke-linejoin="round"></path>
                <path d="M63.64,65.72 C63.64,66.697544 62.847544,67.49 61.87,67.49 C60.892456,67.49 60.1,66.697544 60.1,65.72 C60.1,64.742456 60.892456,63.95 61.87,63.95 C62.847544,63.95 63.64,64.742456 63.64,65.72" stroke="#162843" stroke-linecap="round" stroke-linejoin="round"></path>
            </g>
        </g>
    </g>
</svg>