<?xml version="1.0" encoding="UTF-8"?>
<svg width="120px" height="120px" viewBox="0 0 120 120" version="1.1" xmlns="http://www.w3.org/2000/svg" xmlns:xlink="http://www.w3.org/1999/xlink">
    <!-- Generator: Sketch 46.2 (44496) - http://www.bohemiancoding.com/sketch -->
    <title>transitPadlock_120px-bkg-light@3x</title>
    <desc>Created with Sketch.</desc>
    <defs></defs>
    <g id="Symbole" stroke="none" stroke-width="1" fill="none" fill-rule="evenodd">
        <g id="transitPadlock_120px-bkg-light">
            <g>
                <path d="M60,3 C91.4802307,3 117,28.5197693 117,60 C117,91.4802307 91.4802307,117 60,117 C28.5197693,117 3,91.4802307 3,60 C3.03307047,28.5334777 28.5334777,3.03307047 60,3 M60,-7.10542736e-15 C26.862915,-1.0022667e-14 4.05812251e-15,26.862915 0,60 C-4.05812251e-15,93.137085 26.862915,120 60,120 C93.137085,120 120,93.137085 120,60 C120,44.0870106 113.67859,28.8257758 102.426407,17.5735931 C91.1742242,6.32141042 75.9129894,-3.57878053e-16 60,-1.33226763e-15" id="Shape" fill="#162843" fill-rule="nonzero"></path>
                <path d="M28.5,63.5 L43.5,63.5" id="Shape" stroke="#162843"></path>
                <path d="M28.5,63.5 L32.5,59.5" id="Shape" stroke="#162843" stroke-linecap="round" stroke-linejoin="round"></path>
                <rect id="Rectangle-path" stroke="#162843" stroke-linecap="round" stroke-linejoin="round" x="43.5" y="52.5" width="33" height="25" rx="1"></rect>
                <path d="M50.5,52.24 L50.5,46 C50.5000002,40.753295 54.753295,36.5000003 60,36.5000003 C65.246705,36.5000003 69.4999998,40.753295 69.5,46 L69.5,52.24" id="Shape" stroke="#162843" stroke-linejoin="round"></path>
                <path d="M62,63 C62,64.1045695 61.1045695,65 60,65 C58.8954305,65 58,64.1045695 58,63 C58,61.8954305 58.8954305,61 60,61 C61.1045695,61 62,61.8954305 62,63" id="Shape" fill="#162843" fill-rule="nonzero"></path>
                <path d="M60,62 L60,68" id="Shape" stroke="#162843" stroke-width="2" stroke-linecap="round"></path>
                <path d="M28.5,63.5 L32.5,67.5" id="Shape" stroke="#162843" stroke-linecap="round" stroke-linejoin="round"></path>
                <path d="M91.5,63.5 L76.5,63.5" id="Shape" stroke="#162843"></path>
                <path d="M91.5,63.5 L87.5,67.5" id="Shape" stroke="#162843" stroke-linecap="round" stroke-linejoin="round"></path>
                <path d="M91.5,63.5 L87.5,59.5" id="Shape" stroke="#162843" stroke-linecap="round" stroke-linejoin="round"></path>
            </g>
        </g>
    </g>
</svg>