<?xml version="1.0" encoding="UTF-8"?>
<svg width="120px" height="120px" viewBox="0 0 120 120" version="1.1" xmlns="http://www.w3.org/2000/svg" xmlns:xlink="http://www.w3.org/1999/xlink">
    <!-- Generator: Sketch 46.2 (44496) - http://www.bohemiancoding.com/sketch -->
    <title>magnifyingGlassCheck_120px-bkg-light@3x</title>
    <desc>Created with Sketch.</desc>
    <defs></defs>
    <g id="Symbole" stroke="none" stroke-width="1" fill="none" fill-rule="evenodd">
        <g id="magnifyingGlassCheck_120px-bkg-light">
            <g>
                <path d="M60,3 C91.4802307,3 117,28.5197693 117,60 C117,91.4802307 91.4802307,117 60,117 C28.5197693,117 3,91.4802307 3,60 C3.03307047,28.5334777 28.5334777,3.03307047 60,3 M60,-7.10542736e-15 C26.862915,-1.0022667e-14 4.05812251e-15,26.862915 0,60 C-4.05812251e-15,93.137085 26.862915,120 60,120 C93.137085,120 120,93.137085 120,60 C120,44.0870106 113.67859,28.8257758 102.426407,17.5735931 C91.1742242,6.32141042 75.9129894,-3.57878053e-16 60,-1.33226763e-15" id="Shape" fill="#162843" fill-rule="nonzero"></path>
                <path d="M43.36,62.64 L28.5,77.5" id="Shape" stroke="#162843" stroke-linecap="round" stroke-linejoin="round"></path>
                <circle id="Oval" stroke="#162843" stroke-linecap="round" stroke-linejoin="round" cx="75" cy="75" r="16.5"></circle>
                <polyline id="Shape" stroke="#162843" stroke-linecap="round" stroke-linejoin="round" points="83.5 69.5 71.5 81.5 66.5 76.5"></polyline>
                <path d="M42.5,48.5 C42.5,40.2157288 49.2157288,33.5 57.5,33.5" id="Shape" stroke="#162843" stroke-linecap="round" stroke-linejoin="round"></path>
                <path d="M74.8,58.51 C79.3270047,50.6689868 78.0217907,40.7647559 71.6179881,34.3642425 C65.2141855,27.9637291 55.3092854,26.6636037 47.470599,31.1946363 C39.6319127,35.7256689 35.814877,44.9575491 38.1649579,53.7012542 C40.5150389,62.4449593 48.4459858,68.5192868 57.5,68.51 C58.3058082,68.5048563 59.1105841,68.4514272 59.91,68.35" id="Shape" stroke="#162843" stroke-linecap="round" stroke-linejoin="round"></path>
            </g>
        </g>
    </g>
</svg>